<svg xmlns="http://www.w3.org/2000/svg" style="display:none" aria-hidden="true">
  <symbol id="activity" viewBox="0 0 24 24" fill="none" stroke="currentColor" stroke-width="1.5" stroke-linecap="round" stroke-linejoin="round"><polyline points="22 12 18 12 15 21 9 3 6 12 2 12"></polyline></symbol>
  <symbol id="arrow-left" viewBox="0 0 24 24" fill="none" stroke="currentColor" stroke-width="1.5" stroke-linecap="round" stroke-linejoin="round"><line x1="19" y1="12" x2="5" y2="12"></line><polyline points="12 19 5 12 12 5"></polyline></symbol>
  <symbol id="arrow-right" viewBox="0 0 24 24" fill="none" stroke="currentColor" stroke-width="1.5" stroke-linecap="round" stroke-linejoin="round"><line x1="5" y1="12" x2="19" y2="12"></line><polyline points="12 5 19 12 12 19"></polyline></symbol>
  <symbol id="bar-chart" viewBox="0 0 24 24" fill="none" stroke="currentColor" stroke-width="1.5" stroke-linecap="round" stroke-linejoin="round"><line x1="12" y1="20" x2="12" y2="10"></line><line x1="18" y1="20" x2="18" y2="4"></line><line x1="6" y1="20" x2="6" y2="16"></line><line x1="3" y1="20" x2="21" y2="20"></line></symbol>
  <symbol id="bell" viewBox="0 0 24 24" fill="none" stroke="currentColor" stroke-width="1.5" stroke-linecap="round" stroke-linejoin="round"><path d="M6 8a6 6 0 0 1 12 0c0 7 3 9 3 9H3s3-2 3-9"></path><path d="M10.3 21a1.94 1.94 0 0 0 3.4 0"></path></symbol>
  <symbol id="bot" viewBox="0 0 24 24" fill="none" stroke="currentColor" stroke-width="1.5" stroke-linecap="round" stroke-linejoin="round"><rect x="4" y="8" width="16" height="12" rx="3"></rect><path d="M12 4v4"></path><circle cx="9" cy="14" r="1"></circle><circle cx="15" cy="14" r="1"></circle><path d="M9 18h6"></path></symbol>
  <symbol id="calendar" viewBox="0 0 24 24" fill="none" stroke="currentColor" stroke-width="1.5" stroke-linecap="round" stroke-linejoin="round"><rect x="3" y="4" width="18" height="17" rx="2"></rect><line x1="16" y1="2" x2="16" y2="6"></line><line x1="8" y1="2" x2="8" y2="6"></line><line x1="3" y1="10" x2="21" y2="10"></line></symbol>
  <symbol id="check" viewBox="0 0 24 24" fill="none" stroke="currentColor" stroke-width="1.5" stroke-linecap="round" stroke-linejoin="round"><polyline points="20 6 9 17 4 12"></polyline></symbol>
  <symbol id="chevron-down" viewBox="0 0 24 24" fill="none" stroke="currentColor" stroke-width="1.5" stroke-linecap="round" stroke-linejoin="round"><polyline points="6 9 12 15 18 9"></polyline></symbol>
  <symbol id="chevron-left" viewBox="0 0 24 24" fill="none" stroke="currentColor" stroke-width="1.5" stroke-linecap="round" stroke-linejoin="round"><polyline points="15 18 9 12 15 6"></polyline></symbol>
  <symbol id="chevron-right" viewBox="0 0 24 24" fill="none" stroke="currentColor" stroke-width="1.5" stroke-linecap="round" stroke-linejoin="round"><polyline points="9 18 15 12 9 6"></polyline></symbol>
  <symbol id="chevron-up" viewBox="0 0 24 24" fill="none" stroke="currentColor" stroke-width="1.5" stroke-linecap="round" stroke-linejoin="round"><polyline points="18 15 12 9 6 15"></polyline></symbol>
  <symbol id="circle-check" viewBox="0 0 24 24" fill="none" stroke="currentColor" stroke-width="1.5" stroke-linecap="round" stroke-linejoin="round"><circle cx="12" cy="12" r="9"></circle><polyline points="9 12 11 14 15 10"></polyline></symbol>
  <symbol id="circle-dot" viewBox="0 0 24 24" fill="none" stroke="currentColor" stroke-width="1.5" stroke-linecap="round" stroke-linejoin="round"><circle cx="12" cy="12" r="9"></circle><circle cx="12" cy="12" r="2.5" fill="currentColor"></circle></symbol>
  <symbol id="circle-info" viewBox="0 0 24 24" fill="none" stroke="currentColor" stroke-width="1.5" stroke-linecap="round" stroke-linejoin="round"><circle cx="12" cy="12" r="9"></circle><line x1="12" y1="11" x2="12" y2="16"></line><line x1="12" y1="8" x2="12" y2="8.01"></line></symbol>
  <symbol id="circle-warn" viewBox="0 0 24 24" fill="none" stroke="currentColor" stroke-width="1.5" stroke-linecap="round" stroke-linejoin="round"><circle cx="12" cy="12" r="9"></circle><line x1="12" y1="8" x2="12" y2="13"></line><line x1="12" y1="16" x2="12" y2="16.01"></line></symbol>
  <symbol id="circle-x" viewBox="0 0 24 24" fill="none" stroke="currentColor" stroke-width="1.5" stroke-linecap="round" stroke-linejoin="round"><circle cx="12" cy="12" r="9"></circle><line x1="15" y1="9" x2="9" y2="15"></line><line x1="9" y1="9" x2="15" y2="15"></line></symbol>
  <symbol id="clock" viewBox="0 0 24 24" fill="none" stroke="currentColor" stroke-width="1.5" stroke-linecap="round" stroke-linejoin="round"><circle cx="12" cy="12" r="9"></circle><polyline points="12 7 12 12 15 14"></polyline></symbol>
  <symbol id="cloud-off" viewBox="0 0 24 24" fill="none" stroke="currentColor" stroke-width="1.5" stroke-linecap="round" stroke-linejoin="round"><path d="M22 17.5a4.5 4.5 0 0 1-3.59 4.4"></path><path d="M17.5 19H6.5A4.5 4.5 0 0 1 5.91 10.13 6 6 0 0 1 13.5 5.5"></path><line x1="2" y1="2" x2="22" y2="22"></line></symbol>
  <symbol id="cloud" viewBox="0 0 24 24" fill="none" stroke="currentColor" stroke-width="1.5" stroke-linecap="round" stroke-linejoin="round"><path d="M17.5 19a4.5 4.5 0 1 0 0-9 6 6 0 0 0-11.6 2A4 4 0 0 0 6.5 19z"></path></symbol>
  <symbol id="copy" viewBox="0 0 24 24" fill="none" stroke="currentColor" stroke-width="1.5" stroke-linecap="round" stroke-linejoin="round"><rect x="9" y="9" width="13" height="13" rx="2"></rect><path d="M5 15H4a2 2 0 0 1-2-2V4a2 2 0 0 1 2-2h9a2 2 0 0 1 2 2v1"></path></symbol>
  <symbol id="cpu" viewBox="0 0 24 24" fill="none" stroke="currentColor" stroke-width="1.5" stroke-linecap="round" stroke-linejoin="round"><rect x="6" y="6" width="12" height="12" rx="2"></rect><rect x="9" y="9" width="6" height="6"></rect><line x1="12" y1="2" x2="12" y2="4"></line><line x1="12" y1="20" x2="12" y2="22"></line><line x1="2" y1="12" x2="4" y2="12"></line><line x1="20" y1="12" x2="22" y2="12"></line><line x1="2" y1="8" x2="4" y2="8"></line><line x1="2" y1="16" x2="4" y2="16"></line><line x1="20" y1="8" x2="22" y2="8"></line><line x1="20" y1="16" x2="22" y2="16"></line><line x1="8" y1="2" x2="8" y2="4"></line><line x1="16" y1="2" x2="16" y2="4"></line><line x1="8" y1="20" x2="8" y2="22"></line><line x1="16" y1="20" x2="16" y2="22"></line></symbol>
  <symbol id="dashboard" viewBox="0 0 24 24" fill="none" stroke="currentColor" stroke-width="1.5" stroke-linecap="round" stroke-linejoin="round"><rect x="3" y="3" width="7" height="9" rx="1.5"></rect><rect x="14" y="3" width="7" height="5" rx="1.5"></rect><rect x="14" y="12" width="7" height="9" rx="1.5"></rect><rect x="3" y="16" width="7" height="5" rx="1.5"></rect></symbol>
  <symbol id="database" viewBox="0 0 24 24" fill="none" stroke="currentColor" stroke-width="1.5" stroke-linecap="round" stroke-linejoin="round"><ellipse cx="12" cy="5" rx="8" ry="3"></ellipse><path d="M4 5v6c0 1.7 3.6 3 8 3s8-1.3 8-3V5"></path><path d="M4 11v6c0 1.7 3.6 3 8 3s8-1.3 8-3v-6"></path></symbol>
  <symbol id="download" viewBox="0 0 24 24" fill="none" stroke="currentColor" stroke-width="1.5" stroke-linecap="round" stroke-linejoin="round"><path d="M21 15v4a2 2 0 0 1-2 2H5a2 2 0 0 1-2-2v-4"></path><polyline points="7 10 12 15 17 10"></polyline><line x1="12" y1="15" x2="12" y2="3"></line></symbol>
  <symbol id="edit" viewBox="0 0 24 24" fill="none" stroke="currentColor" stroke-width="1.5" stroke-linecap="round" stroke-linejoin="round"><path d="M11 4H4a2 2 0 0 0-2 2v14a2 2 0 0 0 2 2h14a2 2 0 0 0 2-2v-7"></path><path d="m18.5 2.5 3 3L12 15l-4 1 1-4z"></path></symbol>
  <symbol id="external-link" viewBox="0 0 24 24" fill="none" stroke="currentColor" stroke-width="1.5" stroke-linecap="round" stroke-linejoin="round"><path d="M18 13v6a2 2 0 0 1-2 2H5a2 2 0 0 1-2-2V8a2 2 0 0 1 2-2h6"></path><polyline points="15 3 21 3 21 9"></polyline><line x1="10" y1="14" x2="21" y2="3"></line></symbol>
  <symbol id="eye-off" viewBox="0 0 24 24" fill="none" stroke="currentColor" stroke-width="1.5" stroke-linecap="round" stroke-linejoin="round"><path d="M17.94 17.94A10.94 10.94 0 0 1 12 19c-6.5 0-10-7-10-7a18.5 18.5 0 0 1 5.06-5.94"></path><path d="M9.9 4.24A10.94 10.94 0 0 1 12 4c6.5 0 10 7 10 7a18.5 18.5 0 0 1-2.16 3.19"></path><path d="M14.12 14.12a3 3 0 1 1-4.24-4.24"></path><line x1="2" y1="2" x2="22" y2="22"></line></symbol>
  <symbol id="eye" viewBox="0 0 24 24" fill="none" stroke="currentColor" stroke-width="1.5" stroke-linecap="round" stroke-linejoin="round"><path d="M2 12s3.5-7 10-7 10 7 10 7-3.5 7-10 7S2 12 2 12Z"></path><circle cx="12" cy="12" r="3"></circle></symbol>
  <symbol id="file" viewBox="0 0 24 24" fill="none" stroke="currentColor" stroke-width="1.5" stroke-linecap="round" stroke-linejoin="round"><path d="M14 2H6a2 2 0 0 0-2 2v16a2 2 0 0 0 2 2h12a2 2 0 0 0 2-2V8z"></path><polyline points="14 2 14 8 20 8"></polyline></symbol>
  <symbol id="filter" viewBox="0 0 24 24" fill="none" stroke="currentColor" stroke-width="1.5" stroke-linecap="round" stroke-linejoin="round"><polygon points="22 3 2 3 10 12.46 10 19 14 21 14 12.46 22 3"></polygon></symbol>
  <symbol id="flag" viewBox="0 0 24 24" fill="none" stroke="currentColor" stroke-width="1.5" stroke-linecap="round" stroke-linejoin="round"><path d="M4 21V4a1 1 0 0 1 1-1h11l-2 4 2 4H5"></path></symbol>
  <symbol id="folder" viewBox="0 0 24 24" fill="none" stroke="currentColor" stroke-width="1.5" stroke-linecap="round" stroke-linejoin="round"><path d="M22 19a2 2 0 0 1-2 2H4a2 2 0 0 1-2-2V5a2 2 0 0 1 2-2h5l2 3h9a2 2 0 0 1 2 2z"></path></symbol>
  <symbol id="git-branch" viewBox="0 0 24 24" fill="none" stroke="currentColor" stroke-width="1.5" stroke-linecap="round" stroke-linejoin="round"><line x1="6" y1="3" x2="6" y2="15"></line><circle cx="18" cy="6" r="3"></circle><circle cx="6" cy="18" r="3"></circle><path d="M18 9a9 9 0 0 1-9 9"></path></symbol>
  <symbol id="git-pull-request" viewBox="0 0 24 24" fill="none" stroke="currentColor" stroke-width="1.5" stroke-linecap="round" stroke-linejoin="round"><circle cx="6" cy="6" r="3"></circle><circle cx="18" cy="18" r="3"></circle><path d="M13 6h3a2 2 0 0 1 2 2v7"></path><line x1="6" y1="9" x2="6" y2="21"></line></symbol>
  <symbol id="globe" viewBox="0 0 24 24" fill="none" stroke="currentColor" stroke-width="1.5" stroke-linecap="round" stroke-linejoin="round"><circle cx="12" cy="12" r="9"></circle><line x1="3" y1="12" x2="21" y2="12"></line><path d="M12 3a14 14 0 0 1 0 18 14 14 0 0 1 0-18"></path></symbol>
  <symbol id="grid" viewBox="0 0 24 24" fill="none" stroke="currentColor" stroke-width="1.5" stroke-linecap="round" stroke-linejoin="round"><rect x="3" y="3" width="7" height="7" rx="1"></rect><rect x="14" y="3" width="7" height="7" rx="1"></rect><rect x="14" y="14" width="7" height="7" rx="1"></rect><rect x="3" y="14" width="7" height="7" rx="1"></rect></symbol>
  <symbol id="home" viewBox="0 0 24 24" fill="none" stroke="currentColor" stroke-width="1.5" stroke-linecap="round" stroke-linejoin="round"><path d="M3 11.5 12 4l9 7.5"></path><path d="M5 10v10h14V10"></path></symbol>
  <symbol id="inbox" viewBox="0 0 24 24" fill="none" stroke="currentColor" stroke-width="1.5" stroke-linecap="round" stroke-linejoin="round"><polyline points="22 12 16 12 14 15 10 15 8 12 2 12"></polyline><path d="M5.5 5h13a2 2 0 0 1 1.8 1.1L22 12v6a2 2 0 0 1-2 2H4a2 2 0 0 1-2-2v-6l3.7-5.9A2 2 0 0 1 5.5 5Z"></path></symbol>
  <symbol id="link" viewBox="0 0 24 24" fill="none" stroke="currentColor" stroke-width="1.5" stroke-linecap="round" stroke-linejoin="round"><path d="M10 13a5 5 0 0 0 7 0l3-3a5 5 0 0 0-7-7l-1 1"></path><path d="M14 11a5 5 0 0 0-7 0l-3 3a5 5 0 0 0 7 7l1-1"></path></symbol>
  <symbol id="list" viewBox="0 0 24 24" fill="none" stroke="currentColor" stroke-width="1.5" stroke-linecap="round" stroke-linejoin="round"><line x1="8" y1="6" x2="21" y2="6"></line><line x1="8" y1="12" x2="21" y2="12"></line><line x1="8" y1="18" x2="21" y2="18"></line><line x1="3.5" y1="6" x2="3.51" y2="6"></line><line x1="3.5" y1="12" x2="3.51" y2="12"></line><line x1="3.5" y1="18" x2="3.51" y2="18"></line></symbol>
  <symbol id="lock" viewBox="0 0 24 24" fill="none" stroke="currentColor" stroke-width="1.5" stroke-linecap="round" stroke-linejoin="round"><rect x="4" y="11" width="16" height="10" rx="2"></rect><path d="M8 11V7a4 4 0 0 1 8 0v4"></path></symbol>
  <symbol id="login" viewBox="0 0 24 24" fill="none" stroke="currentColor" stroke-width="1.5" stroke-linecap="round" stroke-linejoin="round"><path d="M15 3h4a2 2 0 0 1 2 2v14a2 2 0 0 1-2 2h-4"></path><path d="m10 17 5-5-5-5"></path><path d="M15 12H3"></path></symbol>
  <symbol id="logout" viewBox="0 0 24 24" fill="none" stroke="currentColor" stroke-width="1.5" stroke-linecap="round" stroke-linejoin="round"><path d="M9 21H5a2 2 0 0 1-2-2V5a2 2 0 0 1 2-2h4"></path><path d="m16 17 5-5-5-5"></path><path d="M21 12H9"></path></symbol>
  <symbol id="menu" viewBox="0 0 24 24" fill="none" stroke="currentColor" stroke-width="1.5" stroke-linecap="round" stroke-linejoin="round"><line x1="4" y1="6" x2="20" y2="6"></line><line x1="4" y1="12" x2="20" y2="12"></line><line x1="4" y1="18" x2="20" y2="18"></line></symbol>
  <symbol id="message" viewBox="0 0 24 24" fill="none" stroke="currentColor" stroke-width="1.5" stroke-linecap="round" stroke-linejoin="round"><path d="M21 11.5a8.4 8.4 0 0 1-.9 3.8 8.5 8.5 0 0 1-7.6 4.7 8.4 8.4 0 0 1-3.8-.9L3 21l1.9-5.7a8.4 8.4 0 0 1-.9-3.8 8.5 8.5 0 0 1 4.7-7.6 8.4 8.4 0 0 1 3.8-.9h.5a8.5 8.5 0 0 1 8 8z"></path></symbol>
  <symbol id="minus" viewBox="0 0 24 24" fill="none" stroke="currentColor" stroke-width="1.5" stroke-linecap="round" stroke-linejoin="round"><line x1="5" y1="12" x2="19" y2="12"></line></symbol>
  <symbol id="network" viewBox="0 0 24 24" fill="none" stroke="currentColor" stroke-width="1.5" stroke-linecap="round" stroke-linejoin="round"><rect x="9" y="2" width="6" height="6" rx="1"></rect><rect x="2" y="16" width="6" height="6" rx="1"></rect><rect x="16" y="16" width="6" height="6" rx="1"></rect><path d="M5 16v-4h14v4"></path><line x1="12" y1="8" x2="12" y2="12"></line></symbol>
  <symbol id="pause" viewBox="0 0 24 24" fill="none" stroke="currentColor" stroke-width="1.5" stroke-linecap="round" stroke-linejoin="round"><rect x="6" y="4" width="4" height="16" rx="1"></rect><rect x="14" y="4" width="4" height="16" rx="1"></rect></symbol>
  <symbol id="pie-chart" viewBox="0 0 24 24" fill="none" stroke="currentColor" stroke-width="1.5" stroke-linecap="round" stroke-linejoin="round"><path d="M21.21 15.89A10 10 0 1 1 8 2.83"></path><path d="M22 12A10 10 0 0 0 12 2v10z"></path></symbol>
  <symbol id="play" viewBox="0 0 24 24" fill="none" stroke="currentColor" stroke-width="1.5" stroke-linecap="round" stroke-linejoin="round"><polygon points="6 4 20 12 6 20 6 4"></polygon></symbol>
  <symbol id="plus" viewBox="0 0 24 24" fill="none" stroke="currentColor" stroke-width="1.5" stroke-linecap="round" stroke-linejoin="round"><line x1="12" y1="5" x2="12" y2="19"></line><line x1="5" y1="12" x2="19" y2="12"></line></symbol>
  <symbol id="pulse" viewBox="0 0 24 24" fill="none" stroke="currentColor" stroke-width="1.5" stroke-linecap="round" stroke-linejoin="round"><path d="M22 12h-4l-3 9-6-18-3 9H2"></path></symbol>
  <symbol id="qr" viewBox="0 0 24 24" fill="none" stroke="currentColor" stroke-width="1.5" stroke-linecap="round" stroke-linejoin="round"><rect x="3" y="3" width="7" height="7" rx="1"></rect><rect x="14" y="3" width="7" height="7" rx="1"></rect><rect x="3" y="14" width="7" height="7" rx="1"></rect><line x1="14" y1="14" x2="14" y2="17"></line><line x1="14" y1="20" x2="14" y2="20.01"></line><line x1="17" y1="14" x2="17" y2="14.01"></line><line x1="20" y1="14" x2="20" y2="17"></line><line x1="17" y1="17" x2="20" y2="17"></line><line x1="17" y1="20" x2="20" y2="20"></line></symbol>
  <symbol id="refresh" viewBox="0 0 24 24" fill="none" stroke="currentColor" stroke-width="1.5" stroke-linecap="round" stroke-linejoin="round"><polyline points="23 4 23 10 17 10"></polyline><polyline points="1 20 1 14 7 14"></polyline><path d="M3.5 9a9 9 0 0 1 14.85-3.36L23 10"></path><path d="M20.5 15a9 9 0 0 1-14.85 3.36L1 14"></path></symbol>
  <symbol id="search" viewBox="0 0 24 24" fill="none" stroke="currentColor" stroke-width="1.5" stroke-linecap="round" stroke-linejoin="round"><circle cx="11" cy="11" r="7"></circle><line x1="21" y1="21" x2="16.65" y2="16.65"></line></symbol>
  <symbol id="server" viewBox="0 0 24 24" fill="none" stroke="currentColor" stroke-width="1.5" stroke-linecap="round" stroke-linejoin="round"><rect x="2" y="3" width="20" height="7" rx="2"></rect><rect x="2" y="14" width="20" height="7" rx="2"></rect><line x1="6" y1="6.5" x2="6.01" y2="6.5"></line><line x1="6" y1="17.5" x2="6.01" y2="17.5"></line></symbol>
  <symbol id="settings" viewBox="0 0 24 24" fill="none" stroke="currentColor" stroke-width="1.5" stroke-linecap="round" stroke-linejoin="round"><circle cx="12" cy="12" r="3"></circle><path d="M19.4 15a1.7 1.7 0 0 0 .3 1.8l.1.1a2 2 0 1 1-2.8 2.8l-.1-.1a1.7 1.7 0 0 0-1.8-.3 1.7 1.7 0 0 0-1 1.5V21a2 2 0 1 1-4 0v-.1a1.7 1.7 0 0 0-1.1-1.5 1.7 1.7 0 0 0-1.8.3l-.1.1a2 2 0 1 1-2.8-2.8l.1-.1a1.7 1.7 0 0 0 .3-1.8 1.7 1.7 0 0 0-1.5-1H3a2 2 0 1 1 0-4h.1A1.7 1.7 0 0 0 4.6 9a1.7 1.7 0 0 0-.3-1.8l-.1-.1a2 2 0 1 1 2.8-2.8l.1.1a1.7 1.7 0 0 0 1.8.3H9a1.7 1.7 0 0 0 1-1.5V3a2 2 0 1 1 4 0v.1a1.7 1.7 0 0 0 1 1.5 1.7 1.7 0 0 0 1.8-.3l.1-.1a2 2 0 1 1 2.8 2.8l-.1.1a1.7 1.7 0 0 0-.3 1.8V9a1.7 1.7 0 0 0 1.5 1H21a2 2 0 1 1 0 4h-.1a1.7 1.7 0 0 0-1.5 1Z"></path></symbol>
  <symbol id="shield-check" viewBox="0 0 24 24" fill="none" stroke="currentColor" stroke-width="1.5" stroke-linecap="round" stroke-linejoin="round"><path d="M12 2 4 5v6c0 5 3.5 9.5 8 11 4.5-1.5 8-6 8-11V5z"></path><polyline points="9 12 11 14 15 10"></polyline></symbol>
  <symbol id="shield" viewBox="0 0 24 24" fill="none" stroke="currentColor" stroke-width="1.5" stroke-linecap="round" stroke-linejoin="round"><path d="M12 2 4 5v6c0 5 3.5 9.5 8 11 4.5-1.5 8-6 8-11V5z"></path></symbol>
  <symbol id="sort" viewBox="0 0 24 24" fill="none" stroke="currentColor" stroke-width="1.5" stroke-linecap="round" stroke-linejoin="round"><path d="M3 6h18"></path><path d="M7 12h10"></path><path d="M11 18h2"></path></symbol>
  <symbol id="star" viewBox="0 0 24 24" fill="none" stroke="currentColor" stroke-width="1.5" stroke-linecap="round" stroke-linejoin="round"><polygon points="12 2 15.1 8.6 22 9.5 17 14.4 18.2 21.3 12 18 5.8 21.3 7 14.4 2 9.5 8.9 8.6 12 2"></polygon></symbol>
  <symbol id="stop" viewBox="0 0 24 24" fill="none" stroke="currentColor" stroke-width="1.5" stroke-linecap="round" stroke-linejoin="round"><rect x="5" y="5" width="14" height="14" rx="2"></rect></symbol>
  <symbol id="tag" viewBox="0 0 24 24" fill="none" stroke="currentColor" stroke-width="1.5" stroke-linecap="round" stroke-linejoin="round"><path d="M20.6 13.4 13 21l-9-9V4h8z"></path><line x1="7.5" y1="7.5" x2="7.51" y2="7.5"></line></symbol>
  <symbol id="terminal" viewBox="0 0 24 24" fill="none" stroke="currentColor" stroke-width="1.5" stroke-linecap="round" stroke-linejoin="round"><polyline points="4 17 10 11 4 5"></polyline><line x1="12" y1="19" x2="20" y2="19"></line></symbol>
  <symbol id="trash" viewBox="0 0 24 24" fill="none" stroke="currentColor" stroke-width="1.5" stroke-linecap="round" stroke-linejoin="round"><polyline points="3 6 5 6 21 6"></polyline><path d="M19 6v14a2 2 0 0 1-2 2H7a2 2 0 0 1-2-2V6m3 0V4a2 2 0 0 1 2-2h4a2 2 0 0 1 2 2v2"></path></symbol>
  <symbol id="trending-down" viewBox="0 0 24 24" fill="none" stroke="currentColor" stroke-width="1.5" stroke-linecap="round" stroke-linejoin="round"><polyline points="3 7 9 13 13 9 21 17"></polyline><polyline points="14 17 21 17 21 10"></polyline></symbol>
  <symbol id="trending-up" viewBox="0 0 24 24" fill="none" stroke="currentColor" stroke-width="1.5" stroke-linecap="round" stroke-linejoin="round"><polyline points="3 17 9 11 13 15 21 7"></polyline><polyline points="14 7 21 7 21 14"></polyline></symbol>
  <symbol id="unlock" viewBox="0 0 24 24" fill="none" stroke="currentColor" stroke-width="1.5" stroke-linecap="round" stroke-linejoin="round"><rect x="4" y="11" width="16" height="10" rx="2"></rect><path d="M8 11V7a4 4 0 0 1 7.5-2"></path></symbol>
  <symbol id="upload" viewBox="0 0 24 24" fill="none" stroke="currentColor" stroke-width="1.5" stroke-linecap="round" stroke-linejoin="round"><path d="M21 15v4a2 2 0 0 1-2 2H5a2 2 0 0 1-2-2v-4"></path><polyline points="17 8 12 3 7 8"></polyline><line x1="12" y1="3" x2="12" y2="15"></line></symbol>
  <symbol id="user" viewBox="0 0 24 24" fill="none" stroke="currentColor" stroke-width="1.5" stroke-linecap="round" stroke-linejoin="round"><path d="M20 21v-2a4 4 0 0 0-4-4H8a4 4 0 0 0-4 4v2"></path><circle cx="12" cy="7" r="4"></circle></symbol>
  <symbol id="x" viewBox="0 0 24 24" fill="none" stroke="currentColor" stroke-width="1.5" stroke-linecap="round" stroke-linejoin="round"><line x1="18" y1="6" x2="6" y2="18"></line><line x1="6" y1="6" x2="18" y2="18"></line></symbol>
  <symbol id="zap" viewBox="0 0 24 24" fill="none" stroke="currentColor" stroke-width="1.5" stroke-linecap="round" stroke-linejoin="round"><polygon points="13 2 3 14 12 14 11 22 21 10 12 10 13 2"></polygon></symbol>
</svg>